#define cpu_width 20
#define cpu_height 14
static unsigned char cpu_bits[] = {
   0x00, 0x00, 0x00, 0x00, 0x2A, 0x00, 0x00, 0x2A, 0x00, 0x80, 0xff, 0x00,
   0xE0, 0x80, 0x23, 0x80, 0x80, 0x00, 0xE0, 0x80, 0x23, 0x80, 0x80, 0x00,
   0xE0, 0x80, 0x23, 0x080, 0xff, 0x00, 0x00, 0x2A, 0x00, 0x00, 0x2A, 0x00,
   0x00, 0x00, 0x00, 0x00, 0x00, 0x00 };
